<svg version="1.1" id="Layer_1" xmlns="http://www.w3.org/2000/svg" xmlns:xlink="http://www.w3.org/1999/xlink" x="0px" y="0px"
	 width="100%" viewBox="0 0 228 221" enable-background="new 0 0 228 221" xml:space="preserve">
<path fill="#FFFFFD" opacity="1.000000" stroke="none" 
	d="
M229.000000,78.000000 
	C229.000000,126.333336 229.000000,174.166672 229.000000,222.000000 
	C153.000000,222.000000 77.000000,222.000000 1.000000,222.000000 
	C1.000000,148.333328 1.000000,74.666664 1.000000,1.000000 
	C77.000000,1.000000 153.000000,1.000000 229.000000,1.000000 
	C229.000000,26.500000 229.000000,52.000000 229.000000,78.000000 
M14.987489,150.414337 
	C15.717870,152.092514 16.413080,153.787018 17.183758,155.446487 
	C38.550461,201.454391 87.003311,226.221756 135.570282,216.621414 
	C194.834930,204.906418 231.859421,149.668777 221.143860,90.158958 
	C210.352142,30.226202 148.978287,-9.416157 89.976021,5.435534 
	C26.154551,21.500284 -8.500093,87.969376 14.987489,150.414337 
z"/>
<path fill="#F8D806" opacity="1.000000" stroke="none" 
	d="
M14.883398,150.040192 
	C-8.500093,87.969376 26.154551,21.500284 89.976021,5.435534 
	C148.978287,-9.416157 210.352142,30.226202 221.143860,90.158958 
	C231.859421,149.668777 194.834930,204.906418 135.570282,216.621414 
	C87.003311,226.221756 38.550461,201.454391 17.183758,155.446487 
	C16.413080,153.787018 15.717870,152.092514 14.883398,150.040192 
M137.367477,211.046967 
	C189.009003,199.766068 223.078506,150.550018 217.344879,99.125076 
	C210.798706,40.412380 155.330429,-1.492874 97.290596,9.102016 
	C35.296124,20.418804 -2.256673,84.009644 18.043587,143.621048 
	C35.120655,193.767609 86.104080,221.856216 137.367477,211.046967 
z"/>
<path fill="#03441F" opacity="1.000000" stroke="none" 
	d="
M136.946991,211.104248 
	C86.104080,221.856216 35.120655,193.767609 18.043587,143.621048 
	C-2.256673,84.009644 35.296124,20.418804 97.290596,9.102016 
	C155.330429,-1.492874 210.798706,40.412380 217.344879,99.125076 
	C223.078506,150.550018 189.009003,199.766068 136.946991,211.104248 
M55.993763,166.009369 
	C55.993763,166.009369 55.929420,166.032333 56.053947,166.857254 
	C56.804649,168.625687 57.555351,170.394104 58.256851,172.772934 
	C58.365974,173.559875 58.554726,174.345642 58.566402,175.134018 
	C58.586140,176.466400 58.142208,178.847778 58.503868,178.969208 
	C61.582096,180.002640 64.848061,183.069351 68.661972,179.046387 
	C70.207283,179.584915 71.894600,179.883041 73.276062,180.698990 
	C87.934731,189.356995 103.750259,193.322083 120.709686,191.997314 
	C126.649712,191.533310 132.640869,190.468597 138.364594,188.827118 
	C144.680527,187.015808 150.716110,184.226944 157.718964,181.945755 
	C162.315033,181.810287 167.242752,180.413101 170.249939,186.322021 
	C170.636444,185.929871 171.022934,185.537735 171.409424,185.145584 
	C170.987885,182.496094 170.566345,179.846588 170.874252,177.150894 
	C171.798599,176.505066 172.722946,175.859222 173.647293,175.213409 
	C172.809921,174.947876 171.972565,174.682343 171.015137,173.610428 
	C170.600220,172.398087 170.185287,171.185730 170.158417,169.389114 
	C176.176117,165.914597 180.374039,160.783920 184.008636,154.205292 
	C195.697098,136.366074 199.713181,116.664223 195.516754,96.030411 
	C188.584290,61.943481 167.953934,39.245735 133.991409,31.246862 
	C99.375420,23.094084 70.533318,34.534428 49.116783,62.838501 
	C28.709211,89.809135 28.587339,131.013000 48.057266,156.919891 
	C50.332611,159.655609 52.607956,162.391312 55.029877,165.672974 
	C55.347794,165.807632 55.665710,165.942291 55.993763,166.009369 
z"/>
<path fill="#FCFCFB" opacity="1.000000" stroke="none" 
	d="
M47.941936,156.267059 
	C28.587339,131.013000 28.709211,89.809135 49.116783,62.838501 
	C70.533318,34.534428 99.375420,23.094084 133.991409,31.246862 
	C167.953934,39.245735 188.584290,61.943481 195.516754,96.030411 
	C199.713181,116.664223 195.697098,136.366074 183.467957,154.162842 
	C181.658310,153.677490 180.389328,153.234589 178.886963,152.482819 
	C175.379593,151.445938 172.111694,150.176926 168.830002,150.140198 
	C165.467026,150.102570 163.842606,149.426514 164.267319,145.827301 
	C164.371353,144.945557 164.012695,144.009201 163.934097,143.518433 
	C162.993637,145.234146 161.981461,147.080734 160.757507,148.676025 
	C159.362076,148.849579 158.178421,149.274429 156.696411,149.886642 
	C154.170822,149.414215 151.943573,148.754425 149.416199,147.928619 
	C145.185745,144.984726 140.894745,145.038086 136.011322,146.106232 
	C133.108917,146.225906 130.663895,146.390610 127.865753,146.713379 
	C124.268219,146.635330 121.023788,146.399246 117.333076,146.159088 
	C112.120735,146.385162 107.354683,146.615326 102.304916,146.789429 
	C101.638817,146.690018 101.256432,146.646667 100.673416,146.425934 
	C99.944160,146.199493 99.415527,146.150482 98.939980,146.102478 
	C98.993065,146.103485 98.898453,146.151703 98.904007,145.839386 
	C98.258034,145.390320 97.606499,145.253571 96.563271,145.135468 
	C93.674492,145.876419 91.177399,146.598740 88.296394,147.369415 
	C86.376129,147.635880 84.839775,147.853973 82.969025,148.004608 
	C82.414490,147.879959 82.194374,147.822739 81.889145,147.632858 
	C81.499176,147.299957 81.244377,147.364975 80.662689,147.741638 
	C77.015686,147.227661 73.745598,146.667236 70.183350,146.056747 
	C69.904938,144.592957 69.477837,142.347397 69.038757,139.757568 
	C69.035973,138.954010 69.045158,138.494736 69.283035,137.863861 
	C69.602325,137.087112 69.700905,136.482574 69.748604,135.874069 
	C69.750183,135.853882 69.236069,135.793259 68.962334,135.751480 
	C68.944901,136.479706 68.927475,137.207932 68.586510,138.008881 
	C68.219849,139.076675 68.176712,140.071747 68.098709,141.505417 
	C68.142738,145.466492 69.302597,149.229797 65.477814,151.816956 
	C58.588848,150.184631 53.301697,153.361603 47.941936,156.267059 
M134.443649,128.768936 
	C134.717957,128.560638 134.896759,128.289368 134.993958,128.005981 
	C134.993958,128.005981 134.946579,127.982826 135.460861,127.679169 
	C135.639648,127.126167 135.818436,126.573158 136.289703,125.369698 
	C137.119843,124.493942 137.949982,123.618179 139.058075,122.062859 
	C139.616714,113.230446 140.175354,104.398041 140.714493,95.873947 
	C138.273651,95.873947 136.837814,95.873947 135.019592,95.090599 
	C134.853256,93.702370 134.983536,92.189621 134.463165,90.950035 
	C133.083633,87.663948 134.544937,85.785652 137.815048,84.185143 
	C138.221542,83.788040 138.628021,83.390945 139.546066,82.606522 
	C139.353699,81.859932 139.161331,81.113335 138.968964,80.366737 
	C138.634277,81.152695 138.299591,81.938652 137.529694,83.060211 
	C137.337524,83.355797 137.145355,83.651382 136.153015,83.896553 
	C130.953644,83.359993 132.064377,80.849243 134.773727,77.757698 
	C137.097778,78.257050 139.573074,79.210693 140.944931,75.473785 
	C138.548843,75.287056 136.451599,75.123611 134.677261,74.258095 
	C134.332214,72.583099 133.987167,70.908104 133.425247,68.180336 
	C130.903793,70.006264 129.161179,71.268188 127.418571,72.530106 
	C127.675674,72.985733 127.932777,73.441360 128.189880,73.896988 
	C127.334770,73.661530 126.479660,73.426064 125.624542,73.190605 
	C125.775551,73.593689 125.926559,73.996765 126.077568,74.399841 
	C124.401436,75.552391 122.725311,76.704933 120.890877,77.194168 
	C117.136208,72.654221 114.917747,72.472969 110.025192,75.828896 
	C108.922852,76.585014 107.212921,76.455315 105.500824,76.788193 
	C106.143890,74.653946 106.467583,73.579666 106.791267,72.505394 
	C105.669914,72.817108 104.548553,73.128830 103.055962,73.058891 
	C102.930321,72.933540 102.804680,72.808197 102.599815,72.018700 
	C100.997681,70.950668 99.395554,69.882637 96.604729,68.022186 
	C96.604729,72.377205 95.547974,75.926712 96.823654,78.119003 
	C99.519455,82.751823 97.211571,83.680580 93.369820,84.277779 
	C99.069229,87.801552 95.641640,91.980362 93.984344,95.987755 
	C92.804749,95.882965 91.625145,95.778175 89.556953,95.594444 
	C90.063362,103.967270 90.547844,111.977707 90.481758,120.445374 
	C90.321915,122.054771 90.162079,123.664169 89.868088,126.624298 
	C91.249115,124.960457 91.633949,124.496811 92.659103,124.257072 
	C96.220642,128.533508 99.620552,132.958359 103.380333,137.052734 
	C109.538872,143.759369 114.829720,144.431168 123.523872,139.940430 
	C124.009270,139.601959 124.494667,139.263474 125.152702,138.380890 
	C125.731201,137.905945 126.309700,137.431015 127.510193,136.944031 
	C128.001129,136.624344 128.492065,136.304657 129.242508,135.375702 
	C130.484634,133.913925 131.726776,132.452148 133.478210,130.676559 
	C133.649185,130.119476 133.820160,129.562393 133.997559,128.998459 
	C133.997559,128.998459 134.000793,128.989655 134.443649,128.768936 
M146.901596,127.660721 
	C146.801041,127.619385 146.700500,127.578041 146.599945,127.536697 
	C146.711288,127.707710 146.822647,127.878723 147.048065,128.671432 
	C147.659210,129.157074 148.270340,129.642731 149.316360,130.602341 
	C150.428909,131.175735 151.541443,131.749115 152.653976,132.322510 
	C152.808746,131.863678 152.963516,131.404861 153.118286,130.946030 
	C151.787582,130.591644 150.456894,130.237259 148.966019,129.273361 
	C148.327362,128.826508 147.688705,128.379654 146.901596,127.660721 
M72.953270,123.562279 
	C72.870583,123.381569 72.787895,123.200859 72.769630,122.286301 
	C75.982964,117.980705 79.196297,113.675110 83.130310,109.108841 
	C86.100449,99.291161 86.479210,89.835281 80.005325,80.978981 
	C78.743675,79.253021 78.647743,76.672752 78.023346,74.483910 
	C77.588593,72.959908 77.169609,71.431419 76.566200,69.205299 
	C76.739265,67.553879 77.324921,65.798004 76.942451,64.287224 
	C76.681107,63.254913 74.380295,61.688637 74.167183,61.856239 
	C71.939743,63.608051 69.612930,65.433189 68.047577,67.736748 
	C67.342133,68.774872 67.792877,71.297241 68.649521,72.461555 
	C69.257149,73.287407 71.423798,72.966202 73.022354,73.860596 
	C73.941078,75.799263 74.723198,77.818169 75.805504,79.660751 
	C78.481140,84.215904 78.709076,88.305817 73.310677,91.955376 
	C69.632736,94.162773 65.872269,96.245163 62.295734,98.606178 
	C56.589520,102.373085 51.801773,106.960548 49.731243,114.624115 
	C49.835655,117.784042 49.940067,120.943970 49.897079,124.619102 
	C49.647160,125.053200 49.397243,125.487289 49.009605,126.616417 
	C49.053024,127.082771 49.096447,127.549118 49.170795,128.768127 
	C49.647507,130.447998 50.124222,132.127869 50.800816,134.512085 
	C55.959072,131.245819 60.753437,128.209976 65.927910,125.216217 
	C66.174263,125.136429 66.394547,125.010895 67.526375,124.816109 
	C67.885963,127.210800 68.245552,129.605484 68.605141,132.000183 
	C69.005142,132.018387 69.405151,132.036575 69.805153,132.054779 
	C69.805153,129.363495 69.805153,126.672195 70.067802,123.460976 
	C70.364380,123.683167 70.660965,123.905350 70.980904,124.798080 
	C71.349648,125.383972 71.718391,125.969856 72.087143,126.555748 
	C72.407326,125.754143 72.727516,124.952538 72.953270,123.562279 
M83.735184,129.980331 
	C84.754654,129.374100 85.774132,128.767868 86.793610,128.161636 
	C86.457123,127.752602 86.120636,127.343567 85.784157,126.934525 
	C84.825920,127.936028 83.867691,128.937531 82.629074,130.092728 
	C82.773460,130.092361 82.917839,130.091995 83.735184,129.980331 
M184.304718,124.306824 
	C184.488434,121.215981 185.343964,117.967522 184.666199,115.078796 
	C183.993896,112.213249 181.777451,109.709976 180.024796,106.361824 
	C178.454437,104.313805 177.249649,101.755859 175.242569,100.317032 
	C170.019623,96.572853 164.444565,93.319839 158.748352,89.253250 
	C153.651459,85.266960 153.334503,83.940948 156.154984,78.066704 
	C157.429031,75.413261 158.752869,72.783730 160.697357,70.333900 
	C165.255951,71.144829 165.616089,68.062988 165.136383,65.015114 
	C164.571991,61.429131 159.206955,58.205101 155.201996,58.636879 
	C155.201996,61.426197 155.201996,64.227287 154.872360,67.784019 
	C153.923996,71.514938 153.956024,75.976509 151.829758,78.829597 
	C146.913315,85.426636 146.732941,92.689026 147.097321,100.131638 
	C147.232834,102.899712 148.708405,105.602180 149.939285,108.920700 
	C153.235626,113.289146 156.531982,117.657585 159.340912,122.561996 
	C159.025024,126.764015 160.397476,131.722672 153.927261,133.100388 
	C155.694153,134.152283 156.900879,134.870697 158.449738,135.792786 
	C159.567017,132.382645 160.604889,129.214874 161.690414,125.901627 
	C162.701538,129.564194 163.708282,133.210922 164.860504,137.384628 
	C164.860504,134.065674 164.860504,131.200241 164.599411,127.669853 
	C164.738403,126.562546 164.877396,125.455246 165.017838,124.336479 
	C170.997803,127.694267 176.726944,130.911209 183.968567,134.977417 
	C183.968567,130.979538 183.968567,128.023575 184.304718,124.306824 
M72.113197,131.231400 
	C72.200737,132.750046 72.288277,134.268692 72.454727,137.156143 
	C74.591110,135.149139 75.676903,134.129105 76.983421,132.901703 
	C75.687767,131.928574 74.818573,131.183716 73.852158,130.599777 
	C73.513786,130.395340 72.936211,130.586792 72.113197,131.231400 
M92.640900,72.777512 
	C89.123787,74.391647 89.123787,74.391647 92.927521,80.753960 
	C92.927521,77.426453 92.927521,75.423248 92.640900,72.777512 
M143.924652,126.480232 
	C143.778442,126.234901 143.632248,125.989571 143.486053,125.744240 
	C143.350647,125.997147 143.052109,126.316223 143.121063,126.486237 
	C143.207443,126.699219 143.595520,126.789841 143.924652,126.480232 
M79.746780,132.190506 
	C79.627342,132.027481 79.507896,131.864441 79.388451,131.701416 
	C79.413368,131.928589 79.438278,132.155762 79.746780,132.190506 
z"/>
<path fill="#A03219" opacity="1.000000" stroke="none" 
	d="
M149.716324,148.094650 
	C151.943573,148.754425 154.170822,149.414215 157.070389,149.902466 
	C158.732788,149.804321 159.722855,149.877731 161.131317,150.000488 
	C162.014603,152.053070 162.479523,154.056320 162.590729,155.983795 
	C161.531052,156.057846 160.825073,156.207672 159.796173,156.295563 
	C159.067810,156.893814 158.662399,157.554001 158.256989,158.214188 
	C158.839417,158.193283 159.421829,158.172394 160.341187,158.087128 
	C161.451630,157.690735 162.225159,157.358704 163.263214,156.767059 
	C164.243149,152.923477 167.249054,153.299088 169.742767,153.086151 
	C172.854309,152.820435 175.993256,152.875259 179.120361,152.791687 
	C180.389328,153.234589 181.658310,153.677490 183.226547,154.410767 
	C180.374039,160.783920 176.176117,165.914597 169.728760,169.514404 
	C168.719147,169.523361 168.039642,169.150177 167.574615,169.330414 
	C162.843033,171.164215 158.341217,171.992920 154.804626,166.711945 
	C153.874557,165.646362 152.995163,164.899612 151.690155,164.031219 
	C140.713455,162.042801 130.386246,163.601837 119.724792,165.984558 
	C117.165245,166.375610 114.991257,166.727829 112.395233,167.059113 
	C107.188042,167.329453 102.402893,167.620712 97.363083,167.868530 
	C92.791435,168.178268 88.474449,168.531433 84.346024,168.869186 
	C81.892731,163.018539 77.621902,161.966736 73.009827,165.801468 
	C71.455063,166.273270 70.273468,166.659790 68.632187,166.983597 
	C64.091476,166.624710 60.010445,166.328522 55.929420,166.032349 
	C55.929420,166.032333 55.993763,166.009369 56.105560,165.705063 
	C55.772671,165.309509 55.327988,165.218262 54.883301,165.127029 
	C52.607956,162.391312 50.332611,159.655609 47.999603,156.593475 
	C53.301697,153.361603 58.588848,150.184631 65.804298,151.939911 
	C67.884171,152.372284 70.488068,152.774200 70.508995,152.667862 
	C71.445885,147.906418 74.828049,149.292328 77.909950,149.361740 
	C79.697189,149.401962 81.504921,148.532272 83.303429,148.072067 
	C84.839775,147.853973 86.376129,147.635880 88.460716,147.745331 
	C92.553322,148.290894 96.098640,148.655365 99.641434,148.632309 
	C100.627670,148.625885 101.606438,147.472626 102.588631,146.845490 
	C107.354683,146.615326 112.120735,146.385162 117.239059,146.461151 
	C117.785194,147.404129 118.014404,148.604767 118.167725,148.595154 
	C121.859840,148.363632 125.543854,148.002716 129.621796,147.696564 
	C132.041199,147.440247 134.068130,147.152588 136.269440,147.168640 
	C140.867996,147.679779 145.292160,147.887207 149.716324,148.094650 
M109.811409,155.100739 
	C101.521965,154.507034 100.615601,154.863785 100.915009,158.059586 
	C105.831291,158.059586 110.664665,158.059586 116.676369,158.059586 
	C113.766449,156.853119 112.150803,156.183273 109.811409,155.100739 
M145.128860,154.030884 
	C137.153473,149.946045 134.226028,149.953888 130.729477,154.736099 
	C135.814056,154.736099 140.432388,154.736099 145.128860,154.030884 
M139.005859,159.150238 
	C141.011505,159.150238 143.017151,159.150238 145.022797,159.150238 
	C134.451675,155.711899 134.451675,155.711899 132.023148,159.108047 
	C134.164536,159.108047 136.189850,159.108047 139.005859,159.150238 
M102.807129,152.893814 
	C105.986702,152.893814 109.166283,152.893814 112.345856,152.893814 
	C112.390404,152.323303 112.434959,151.752792 112.479507,151.182281 
	C109.047478,150.817780 105.620560,150.355865 102.178894,150.174866 
	C101.528137,150.140671 100.818687,151.222595 100.136314,151.789505 
	C100.730125,152.179916 101.323936,152.570328 102.807129,152.893814 
M118.912048,154.893066 
	C121.068779,154.286392 124.389053,156.519257 125.713837,152.274490 
	C122.086182,151.935059 119.064384,151.652313 114.823425,151.255493 
	C116.280510,152.857300 117.193733,153.861221 118.912048,154.893066 
M81.788925,157.949829 
	C84.580391,157.949829 87.371857,157.949829 91.438622,157.949829 
	C81.330338,154.378952 81.330338,154.378952 77.918976,157.776550 
	C79.157547,157.844910 80.031151,157.893127 81.788925,157.949829 
z"/>
<path fill="#FAFAF9" opacity="1.000000" stroke="none" 
	d="
M156.873795,181.863892 
	C150.716110,184.226944 144.680527,187.015808 138.364594,188.827118 
	C132.640869,190.468597 126.649712,191.533310 120.709686,191.997314 
	C103.750259,193.322083 87.934731,189.356995 73.276062,180.698990 
	C71.894600,179.883041 70.207283,179.584915 68.472343,178.659164 
	C71.140755,178.275803 73.998863,178.292801 76.856827,178.280243 
	C80.628532,178.263672 84.400124,178.223938 88.621605,178.227936 
	C97.372681,177.463455 105.673920,176.665192 114.400993,175.930023 
	C118.212631,175.613022 121.598427,175.232880 125.422943,174.905792 
	C130.237427,174.586517 134.613174,174.214172 139.304321,173.912979 
	C140.264648,174.018143 140.909576,174.052155 141.601562,174.455811 
	C141.755386,175.558990 141.862122,176.292496 141.925842,177.419250 
	C142.945282,184.698669 147.704819,180.639114 151.401978,180.940414 
	C153.489258,181.278961 155.181534,181.571426 156.873795,181.863892 
z"/>
<path fill="#9F8832" opacity="1.000000" stroke="none" 
	d="
M88.171768,178.194138 
	C84.400124,178.223938 80.628532,178.263672 76.856827,178.280243 
	C73.998863,178.292801 71.140755,178.275803 68.103058,178.606232 
	C64.848061,183.069351 61.582096,180.002640 58.503868,178.969208 
	C58.142208,178.847778 58.586140,176.466400 58.566402,175.134018 
	C58.554726,174.345642 58.365974,173.559875 58.603828,172.358032 
	C62.331158,170.310852 65.711510,168.678574 69.091866,167.046295 
	C70.273468,166.659790 71.455063,166.273270 72.966988,165.841156 
	C73.297310,165.795563 73.182396,165.802002 73.115303,166.191315 
	C72.979141,167.983444 72.910065,169.386246 72.794365,171.736053 
	C76.247726,170.310760 79.039581,169.158478 81.885849,168.384491 
	C82.040253,169.776398 82.140236,170.790024 81.917503,172.004639 
	C80.978577,173.461456 80.362373,174.717300 79.397858,176.682983 
	C82.814888,177.271515 85.493324,177.732819 88.171768,178.194138 
z"/>
<path fill="#9B8429" opacity="1.000000" stroke="none" 
	d="
M157.296387,181.904816 
	C155.181534,181.571426 153.489258,181.278961 151.550262,180.660065 
	C152.297928,179.249146 153.292297,178.164703 154.282867,177.075424 
	C153.853378,176.398849 153.427719,175.727081 153.047241,174.667053 
	C153.680069,171.862793 154.267685,169.446793 154.855286,167.030792 
	C158.341217,171.992920 162.843033,171.164215 167.574615,169.330414 
	C168.039642,169.150177 168.719147,169.523361 169.534729,169.806534 
	C170.185287,171.185730 170.600220,172.398087 171.170471,174.090393 
	C171.325790,174.570343 171.317688,174.815613 170.963562,174.855148 
	C169.770782,175.210144 168.932129,175.525604 167.873291,176.027557 
	C168.483673,176.541718 169.314240,176.869400 170.144806,177.197083 
	C170.566345,179.846588 170.987885,182.496094 171.409424,185.145584 
	C171.022934,185.537735 170.636444,185.929871 170.249939,186.322021 
	C167.242752,180.413101 162.315033,181.810287 157.296387,181.904816 
z"/>
<path fill="#EDE7E2" opacity="1.000000" stroke="none" 
	d="
M68.632187,166.983597 
	C65.711510,168.678574 62.331158,170.310852 58.628426,172.052826 
	C57.555351,170.394104 56.804649,168.625687 55.991684,166.444794 
	C60.010445,166.328522 64.091476,166.624710 68.632187,166.983597 
z"/>
<path fill="#CFC49A" opacity="1.000000" stroke="none" 
	d="
M171.317688,174.815613 
	C171.317688,174.815613 171.325790,174.570343 171.230499,174.493576 
	C171.972565,174.682343 172.809921,174.947876 173.647293,175.213394 
	C172.722946,175.859222 171.798599,176.505066 170.509521,177.173981 
	C169.314240,176.869400 168.483673,176.541718 168.198837,176.080170 
	C169.602264,175.569412 170.459976,175.192505 171.317688,174.815613 
z"/>
<path fill="#EDE7E2" opacity="1.000000" stroke="none" 
	d="
M54.956589,165.399994 
	C55.327988,165.218262 55.772671,165.309509 56.100491,165.738846 
	C55.665710,165.942291 55.347794,165.807632 54.956589,165.399994 
z"/>
<path fill="#F9D909" opacity="1.000000" stroke="none" 
	d="
M132.968918,130.990372 
	C131.726776,132.452148 130.484634,133.913925 128.801682,135.723862 
	C127.869965,136.366699 127.379074,136.661377 126.888199,136.956085 
	C126.309700,137.431015 125.731201,137.905945 124.758896,138.720856 
	C123.874702,139.359573 123.384323,139.658340 122.893936,139.957092 
	C114.829720,144.431168 109.538872,143.759369 103.380333,137.052734 
	C99.620552,132.958359 96.220642,128.533508 92.321106,123.785797 
	C91.996674,123.075195 92.010254,122.835861 92.344620,122.546989 
	C98.695183,114.105408 104.883133,105.819969 110.655281,97.254326 
	C112.318909,94.785576 112.785431,91.510132 113.890160,88.434067 
	C114.173569,88.072029 114.405815,87.992813 115.048187,88.165672 
	C115.669502,88.394646 115.918892,88.483894 116.191040,88.607430 
	C116.213806,88.641724 116.161652,88.725845 116.140457,89.101349 
	C121.918175,99.231842 127.613396,109.051384 133.610870,118.682716 
	C134.699539,120.431000 137.025406,121.408875 138.780121,122.742416 
	C137.949982,123.618179 137.119843,124.493942 135.869263,125.818344 
	C135.281403,126.838943 135.113983,127.410881 134.946579,127.982826 
	C134.946579,127.982826 134.993958,128.005981 134.734192,128.052765 
	C134.316544,128.396240 134.158661,128.692947 134.000793,128.989655 
	C134.000793,128.989655 133.997559,128.998459 133.744736,129.156952 
	C133.317581,129.873749 133.143250,130.432068 132.968918,130.990372 
M106.843620,112.172737 
	C106.271637,112.755875 105.699654,113.339012 104.888542,114.461975 
	C104.837349,114.652000 104.786156,114.842033 104.309845,115.335228 
	C104.180237,115.831001 104.050636,116.326782 103.489075,117.160805 
	C103.413605,117.686554 103.338135,118.212296 103.048477,119.345238 
	C103.085548,119.556641 103.122612,119.768036 103.039764,120.738152 
	C103.090996,121.501625 103.142235,122.265099 103.049171,123.475670 
	C103.346184,123.816971 103.643196,124.158272 103.642555,125.013214 
	C103.871773,125.714981 104.100990,126.416748 104.797951,127.867676 
	C106.586960,132.495087 111.044273,131.240982 114.186989,131.333115 
	C118.435196,131.457642 123.692749,132.210205 126.331955,126.195671 
	C126.536407,125.495773 126.740860,124.795883 127.071960,123.581383 
	C127.036682,123.408279 127.001404,123.235184 127.094299,122.267937 
	C127.056961,121.468788 127.019630,120.669640 127.144470,119.233528 
	C126.930702,118.396996 126.716927,117.560471 126.337914,116.220741 
	C126.066994,115.771881 125.796074,115.323013 125.289238,114.338676 
	C125.043007,114.038239 124.796776,113.737808 124.196083,112.990425 
	C123.771797,112.631889 123.347504,112.273354 122.572495,111.289490 
	C117.395065,108.105934 112.313828,107.585655 106.843620,112.172737 
z"/>
<path fill="#0E481E" opacity="1.000000" stroke="none" 
	d="
M138.919098,122.402634 
	C137.025406,121.408875 134.699539,120.431000 133.610870,118.682716 
	C127.613396,109.051384 121.918175,99.231842 116.495010,89.194115 
	C119.813835,90.212685 122.756920,91.514000 126.062241,92.853241 
	C127.515999,93.060944 128.666809,93.066818 129.686340,93.435600 
	C131.631119,94.139046 133.501007,95.049454 135.401993,95.873947 
	C136.837814,95.873947 138.273651,95.873947 140.714493,95.873947 
	C140.175354,104.398041 139.616714,113.230446 138.919098,122.402634 
z"/>
<path fill="#0C481D" opacity="1.000000" stroke="none" 
	d="
M113.800797,88.604538 
	C112.785431,91.510132 112.318909,94.785576 110.655281,97.254326 
	C104.883133,105.819969 98.695183,114.105408 92.318054,122.241226 
	C91.657913,121.319382 91.345123,120.653763 91.032333,119.988136 
	C90.547844,111.977707 90.063362,103.967270 89.556953,95.594444 
	C91.625145,95.778175 92.804749,95.882965 94.752380,95.987099 
	C99.125999,94.704338 102.731590,93.422226 106.636536,91.999878 
	C109.224197,90.774612 111.512497,89.689575 113.800797,88.604538 
z"/>
<path fill="#3C3C3E" opacity="1.000000" stroke="none" 
	d="
M82.409622,109.369514 
	C79.196297,113.675110 75.982964,117.980705 72.547218,122.829300 
	C72.236153,123.700645 72.147491,124.028992 71.759300,124.415939 
	C71.292358,124.358879 71.124954,124.243210 70.957542,124.127533 
	C70.660965,123.905350 70.364380,123.683167 69.563530,123.717758 
	C68.306511,123.970078 67.553772,123.965607 66.838158,123.594116 
	C67.379227,121.698418 67.883163,120.169746 68.477951,118.610886 
	C68.568810,118.580696 68.713943,118.705605 69.024551,118.723701 
	C69.505402,118.386902 69.675644,118.031998 69.920006,117.389435 
	C75.616585,116.444221 78.763611,111.743553 78.609970,103.418282 
	C76.970764,103.914787 75.500046,104.302048 74.070236,104.805466 
	C71.093597,105.853485 68.147713,106.988770 65.172623,108.041359 
	C60.448269,109.712845 54.057999,107.637711 51.442532,114.136986 
	C51.402058,114.237549 50.522400,114.000404 50.034370,113.920868 
	C51.801773,106.960548 56.589520,102.373085 62.295734,98.606178 
	C65.872269,96.245163 69.632736,94.162773 73.632095,92.207901 
	C74.417183,93.514572 74.643700,95.256416 75.382957,95.511345 
	C80.212830,97.176811 79.632149,101.720718 80.928154,105.259995 
	C81.428848,106.627319 81.916199,107.999527 82.409622,109.369514 
z"/>
<path fill="#977B3A" opacity="1.000000" stroke="none" 
	d="
M106.337173,92.140114 
	C102.731590,93.422226 99.125999,94.704338 95.122902,95.947830 
	C95.641640,91.980362 99.069229,87.801552 93.369820,84.277779 
	C97.211571,83.680580 99.519455,82.751823 96.823654,78.119003 
	C95.547974,75.926712 96.604729,72.377205 96.604729,68.022186 
	C99.395554,69.882637 100.997681,70.950668 102.406158,72.529114 
	C102.234222,73.308334 102.255943,73.577148 102.277657,73.845963 
	C102.660835,73.710823 103.044014,73.575684 103.427193,73.440552 
	C104.548553,73.128830 105.669914,72.817108 106.791267,72.505386 
	C106.467583,73.579666 106.143890,74.653946 105.500824,76.788193 
	C107.212921,76.455315 108.922852,76.585014 110.025192,75.828896 
	C114.917747,72.472969 117.136208,72.654221 120.961494,77.928787 
	C121.064041,79.199516 121.095978,79.735641 121.142502,80.631927 
	C119.957741,82.550758 118.697250,84.067329 117.583572,85.684990 
	C116.982216,86.558487 116.631859,87.604790 116.168274,88.573135 
	C115.918892,88.483894 115.669502,88.394646 115.211426,87.829437 
	C113.253456,86.002121 111.093071,84.954018 109.831161,83.243187 
	C105.877083,77.882454 106.008286,77.785675 102.100990,82.749313 
	C103.036148,84.351830 104.816772,86.337685 104.435150,86.929642 
	C102.566826,89.827782 104.663651,90.811836 106.337173,92.140114 
z"/>
<path fill="#F8F7F7" opacity="1.000000" stroke="none" 
	d="
M49.882805,114.272491 
	C50.522400,114.000404 51.402058,114.237549 51.442532,114.136986 
	C54.057999,107.637711 60.448269,109.712845 65.172623,108.041359 
	C68.147713,106.988770 71.093597,105.853485 74.070236,104.805466 
	C75.500046,104.302048 76.970764,103.914787 78.609970,103.418282 
	C78.763611,111.743553 75.616585,116.444221 69.629707,117.466454 
	C69.081505,118.122627 68.897720,118.414116 68.713943,118.705605 
	C68.713943,118.705605 68.568810,118.580696 68.137405,118.696671 
	C61.818829,120.576393 55.931656,122.340149 50.044479,124.103897 
	C49.940067,120.943970 49.835655,117.784042 49.882805,114.272491 
z"/>
<path fill="#444445" opacity="1.000000" stroke="none" 
	d="
M159.009979,89.870880 
	C164.444565,93.319839 170.019623,96.572853 175.242569,100.317032 
	C177.249649,101.755859 178.454437,104.313805 179.826477,106.800545 
	C179.084412,107.567627 178.540665,107.895988 177.569016,108.174561 
	C175.428329,108.121063 173.715576,108.117348 171.753433,108.070053 
	C171.336319,108.007767 171.168594,107.989075 170.810638,107.606499 
	C168.549576,106.407143 166.543137,105.287521 164.393356,104.800018 
	C160.799057,103.984962 157.113190,103.573647 153.231201,102.999863 
	C152.684250,103.008492 152.371964,103.010674 152.088104,102.643890 
	C152.055405,101.534760 151.994278,100.795624 151.975677,100.016258 
	C152.018219,99.976028 152.096893,99.889282 152.418365,99.824142 
	C153.132660,96.245468 155.226410,93.913940 157.976959,91.949554 
	C158.532684,91.552666 158.676346,90.578758 159.009979,89.870880 
z"/>
<path fill="#7A7A7C" opacity="1.000000" stroke="none" 
	d="
M151.933151,100.056488 
	C151.994278,100.795624 152.055405,101.534760 151.793945,102.787338 
	C150.838531,104.978706 150.205704,106.656639 149.572876,108.334572 
	C148.708405,105.602180 147.232834,102.899712 147.097321,100.131638 
	C146.732941,92.689026 146.913315,85.426636 151.829758,78.829597 
	C153.956024,75.976509 153.923996,71.514938 155.430206,67.421585 
	C158.247498,66.895294 160.212860,67.119148 160.054138,70.143356 
	C158.752869,72.783730 157.429031,75.413261 156.154984,78.066704 
	C153.334503,83.940948 153.651459,85.266960 158.879166,89.562065 
	C158.676346,90.578758 158.532684,91.552666 157.976959,91.949554 
	C155.226410,93.913940 153.132660,96.245468 152.346466,99.674416 
	C151.834793,99.555069 151.716522,99.520302 151.598236,99.485542 
	C151.709885,99.675858 151.821518,99.866173 151.933151,100.056488 
z"/>
<path fill="#7A7B7D" opacity="1.000000" stroke="none" 
	d="
M82.769974,109.239182 
	C81.916199,107.999527 81.428848,106.627319 80.928154,105.259995 
	C79.632149,101.720718 80.212830,97.176811 75.382957,95.511345 
	C74.643700,95.256416 74.417183,93.514572 73.971901,92.080582 
	C78.709076,88.305817 78.481140,84.215904 75.805504,79.660751 
	C74.723198,77.818169 73.941078,75.799263 73.027832,73.147675 
	C74.270065,71.591476 75.506828,70.748199 76.743591,69.904922 
	C77.169609,71.431419 77.588593,72.959908 78.023346,74.483910 
	C78.647743,76.672752 78.743675,79.253021 80.005325,80.978981 
	C86.479210,89.835281 86.100449,99.291161 82.769974,109.239182 
z"/>
<path fill="#987D3E" opacity="1.000000" stroke="none" 
	d="
M121.127914,80.271759 
	C121.095978,79.735641 121.064041,79.199516 121.040649,78.260437 
	C122.725311,76.704933 124.401436,75.552391 126.077568,74.399841 
	C125.926559,73.996765 125.775551,73.593689 125.624542,73.190605 
	C126.479660,73.426064 127.334770,73.661530 128.189880,73.896988 
	C127.932777,73.441360 127.675674,72.985733 127.418571,72.530106 
	C129.161179,71.268188 130.903793,70.006264 133.425247,68.180336 
	C133.987167,70.908104 134.332214,72.583099 134.354675,74.878387 
	C134.122589,76.327591 134.213120,77.156502 134.303650,77.985420 
	C132.064377,80.849243 130.953644,83.359993 136.628891,84.014938 
	C137.104767,84.133324 137.246780,84.326637 137.246780,84.326637 
	C134.544937,85.785652 133.083633,87.663948 134.463165,90.950035 
	C134.983536,92.189621 134.853256,93.702370 135.210785,95.482269 
	C133.501007,95.049454 131.631119,94.139046 129.686340,93.435600 
	C128.666809,93.066818 127.515999,93.060944 126.039124,92.540237 
	C126.352104,89.013290 127.050438,85.837280 127.935127,81.813751 
	C126.859619,79.633919 124.619675,78.091599 121.127914,80.271759 
z"/>
<path fill="#434243" opacity="1.000000" stroke="none" 
	d="
M149.756073,108.627640 
	C150.205704,106.656639 150.838531,104.978706 151.765533,103.157333 
	C152.371964,103.010674 152.684250,103.008492 153.288544,103.423416 
	C153.816635,110.117943 156.000229,115.008728 162.606171,116.977722 
	C166.341675,124.791862 174.092682,125.530373 180.944946,127.717140 
	C181.349075,127.846107 182.424576,125.871346 183.385162,124.914307 
	C183.582657,124.953072 183.968567,125.067604 183.968567,125.067604 
	C183.968567,128.023575 183.968567,130.979538 183.968567,134.977417 
	C176.726944,130.911209 170.997803,127.694267 165.017838,124.336479 
	C164.877396,125.455246 164.738403,126.562546 164.537781,127.776886 
	C164.648361,124.565407 162.412537,123.157516 159.828323,122.026031 
	C156.531982,117.657585 153.235626,113.289146 149.756073,108.627640 
z"/>
<path fill="#A5301B" opacity="1.000000" stroke="none" 
	d="
M160.375732,70.238625 
	C160.212860,67.119148 158.247498,66.895294 155.595016,67.043762 
	C155.201996,64.227287 155.201996,61.426197 155.201996,58.636879 
	C159.206955,58.205101 164.571991,61.429131 165.136383,65.015114 
	C165.616089,68.062988 165.255951,71.144829 160.375732,70.238625 
z"/>
<path fill="#A73623" opacity="1.000000" stroke="none" 
	d="
M76.654892,69.555115 
	C75.506828,70.748199 74.270065,71.591476 72.963943,72.795868 
	C71.423798,72.966202 69.257149,73.287407 68.649521,72.461555 
	C67.792877,71.297241 67.342133,68.774872 68.047577,67.736748 
	C69.612930,65.433189 71.939743,63.608051 74.167183,61.856239 
	C74.380295,61.688637 76.681107,63.254913 76.942451,64.287224 
	C77.324921,65.798004 76.739265,67.553879 76.654892,69.555115 
z"/>
<path fill="#A0301B" opacity="1.000000" stroke="none" 
	d="
M49.970779,124.361504 
	C55.931656,122.340149 61.818829,120.576393 68.046555,118.726860 
	C67.883163,120.169746 67.379227,121.698418 66.787849,123.814003 
	C66.700409,124.400917 66.588760,124.839622 66.588760,124.839622 
	C66.394547,125.010895 66.174263,125.136429 65.490982,124.895309 
	C63.515404,124.822983 61.948887,124.961578 60.443897,125.342941 
	C57.280910,126.144463 54.150230,127.073471 50.953941,127.645607 
	C50.316845,126.867844 49.732086,126.394615 49.147327,125.921387 
	C49.397243,125.487289 49.647160,125.053200 49.970779,124.361504 
z"/>
<path fill="#59985C" opacity="1.000000" stroke="none" 
	d="
M82.969025,148.004608 
	C81.504921,148.532272 79.697189,149.401962 77.909950,149.361740 
	C74.828049,149.292328 71.445885,147.906418 70.508995,152.667862 
	C70.488068,152.774200 67.884171,152.372284 66.158676,152.084518 
	C69.302597,149.229797 68.142738,145.466492 68.327423,141.429367 
	C68.883980,140.722794 69.037224,140.451828 69.050735,140.101837 
	C69.477837,142.347397 69.904938,144.592957 70.183350,146.056747 
	C73.745598,146.667236 77.015686,147.227661 80.892036,147.816528 
	C81.498291,147.845001 81.974266,147.765533 81.974266,147.765533 
	C82.194374,147.822739 82.414490,147.879959 82.969025,148.004608 
z"/>
<path fill="#3C3C3E" opacity="1.000000" stroke="none" 
	d="
M51.006287,127.950142 
	C54.150230,127.073471 57.280910,126.144463 60.443897,125.342941 
	C61.948887,124.961578 63.515404,124.822983 65.300919,124.874268 
	C60.753437,128.209976 55.959072,131.245819 50.800816,134.512085 
	C50.124222,132.127869 49.647507,130.447998 49.466438,128.378601 
	C50.176815,127.976105 50.591549,127.963127 51.006287,127.950142 
z"/>
<path fill="#F9F9F8" opacity="1.000000" stroke="none" 
	d="
M159.584625,122.294014 
	C162.412537,123.157516 164.648361,124.565407 164.668335,128.109375 
	C164.860504,131.200241 164.860504,134.065674 164.860504,137.384628 
	C163.708282,133.210922 162.701538,129.564194 161.690414,125.901627 
	C160.604889,129.214874 159.567017,132.382645 158.449738,135.792786 
	C156.900879,134.870697 155.694153,134.152283 153.927261,133.100388 
	C160.397476,131.722672 159.025024,126.764015 159.584625,122.294014 
z"/>
<path fill="#4C803F" opacity="1.000000" stroke="none" 
	d="
M178.886963,152.482819 
	C175.993256,152.875259 172.854309,152.820435 169.742767,153.086151 
	C167.249054,153.299088 164.243149,152.923477 163.228714,156.526337 
	C162.929672,156.545212 162.944443,156.059555 162.944443,156.059555 
	C162.479523,154.056320 162.014603,152.053070 161.204071,149.746246 
	C160.895386,149.270889 160.932327,149.099106 160.969269,148.927322 
	C161.981461,147.080734 162.993637,145.234146 163.934097,143.518433 
	C164.012695,144.009201 164.371353,144.945557 164.267319,145.827301 
	C163.842606,149.426514 165.467026,150.102570 168.830002,150.140198 
	C172.111694,150.176926 175.379593,151.445938 178.886963,152.482819 
z"/>
<path fill="#F8F8F7" opacity="1.000000" stroke="none" 
	d="
M184.136642,124.687210 
	C183.968567,125.067604 183.582657,124.953072 183.344452,124.558914 
	C182.739334,123.594109 182.372452,123.023453 182.206879,122.208221 
	C184.350830,118.663567 183.100677,115.972679 180.970856,113.279106 
	C179.769745,111.760094 178.974823,109.919876 177.996933,108.224350 
	C178.540665,107.895988 179.084412,107.567627 179.933197,107.143539 
	C181.777451,109.709976 183.993896,112.213249 184.666199,115.078796 
	C185.343964,117.967522 184.488434,121.215981 184.136642,124.687210 
z"/>
<path fill="#59AD55" opacity="1.000000" stroke="none" 
	d="
M102.304916,146.789429 
	C101.606438,147.472626 100.627670,148.625885 99.641434,148.632309 
	C96.098640,148.655365 92.553322,148.290894 88.844635,147.696976 
	C91.177399,146.598740 93.674492,145.876419 96.715439,145.388214 
	C97.805687,145.798767 98.352074,145.975235 98.898453,146.151703 
	C98.898453,146.151703 98.993065,146.103485 99.106018,146.332672 
	C99.770660,146.575684 100.322357,146.589508 100.874046,146.603333 
	C101.256432,146.646667 101.638817,146.690018 102.304916,146.789429 
z"/>
<path fill="#54B257" opacity="1.000000" stroke="none" 
	d="
M149.416199,147.928619 
	C145.292160,147.887207 140.867996,147.679779 136.367752,146.993088 
	C136.291672,146.513840 136.468704,146.151260 136.468704,146.151260 
	C140.894745,145.038086 145.185745,144.984726 149.416199,147.928619 
z"/>
<path fill="#4CB252" opacity="1.000000" stroke="none" 
	d="
M129.229324,147.665192 
	C125.543854,148.002716 121.859840,148.363632 118.167725,148.595154 
	C118.014404,148.604767 117.785194,147.404129 117.685349,146.465240 
	C121.023788,146.399246 124.268219,146.635330 128.106888,146.824753 
	C128.877197,147.073792 129.053253,147.369492 129.229324,147.665192 
z"/>
<path fill="#F9F9F8" opacity="1.000000" stroke="none" 
	d="
M72.290535,130.914429 
	C72.936211,130.586792 73.513786,130.395340 73.852158,130.599777 
	C74.818573,131.183716 75.687767,131.928574 76.983421,132.901703 
	C75.676903,134.129105 74.591110,135.149139 72.454727,137.156143 
	C72.288277,134.268692 72.200737,132.750046 72.290535,130.914429 
z"/>
<path fill="#F6F3EF" opacity="1.000000" stroke="none" 
	d="
M92.784210,73.098778 
	C92.927521,75.423248 92.927521,77.426453 92.927521,80.753960 
	C89.123787,74.391647 89.123787,74.391647 92.784210,73.098778 
z"/>
<path fill="#EFEBE4" opacity="1.000000" stroke="none" 
	d="
M134.538696,77.871559 
	C134.213120,77.156502 134.122589,76.327591 134.193207,75.229416 
	C136.451599,75.123611 138.548843,75.287056 140.944931,75.473785 
	C139.573074,79.210693 137.097778,78.257050 134.538696,77.871559 
z"/>
<path fill="#4D4B4B" opacity="1.000000" stroke="none" 
	d="
M67.057571,124.827866 
	C66.588760,124.839622 66.700409,124.400917 66.750717,124.181030 
	C67.553772,123.965607 68.306511,123.970078 69.432205,123.977722 
	C69.805153,126.672195 69.805153,129.363495 69.805153,132.054779 
	C69.405151,132.036575 69.005142,132.018387 68.605141,132.000183 
	C68.245552,129.605484 67.885963,127.210800 67.057571,124.827866 
z"/>
<path fill="#F9F9F8" opacity="1.000000" stroke="none" 
	d="
M129.621796,147.696564 
	C129.053253,147.369492 128.877197,147.073792 128.460007,146.666702 
	C130.663895,146.390610 133.108917,146.225906 136.011322,146.106232 
	C136.468704,146.151260 136.291672,146.513840 136.193359,146.689392 
	C134.068130,147.152588 132.041199,147.440247 129.621796,147.696564 
z"/>
<path fill="#F9F9F8" opacity="1.000000" stroke="none" 
	d="
M90.757050,120.216751 
	C91.345123,120.653763 91.657913,121.319382 91.997269,122.290771 
	C92.010254,122.835861 91.996674,123.075195 92.000938,123.673843 
	C91.633949,124.496811 91.249115,124.960457 89.868088,126.624298 
	C90.162079,123.664169 90.321915,122.054771 90.757050,120.216751 
z"/>
<path fill="#F9F9F8" opacity="1.000000" stroke="none" 
	d="
M82.909454,129.939026 
	C83.867691,128.937531 84.825920,127.936028 85.784157,126.934525 
	C86.120636,127.343567 86.457123,127.752602 86.793610,128.161636 
	C85.774132,128.767868 84.754654,129.374100 83.363892,129.994446 
	C82.992599,130.008545 82.909454,129.939026 82.909454,129.939026 
z"/>
<path fill="#F9F9F8" opacity="1.000000" stroke="none" 
	d="
M160.757507,148.676025 
	C160.932327,149.099106 160.895386,149.270889 160.785706,149.696899 
	C159.722855,149.877731 158.732788,149.804321 157.368744,149.715118 
	C158.178421,149.274429 159.362076,148.849579 160.757507,148.676025 
z"/>
<path fill="#F9F9F8" opacity="1.000000" stroke="none" 
	d="
M149.126190,129.882874 
	C150.456894,130.237259 151.787582,130.591644 153.118286,130.946030 
	C152.963516,131.404861 152.808746,131.863678 152.653976,132.322510 
	C151.541443,131.749115 150.428909,131.175735 149.159042,130.302917 
	C149.001724,130.003510 149.126190,129.882874 149.126190,129.882874 
z"/>
<path fill="#EFEBE4" opacity="1.000000" stroke="none" 
	d="
M137.964905,82.724609 
	C138.299591,81.938652 138.634277,81.152695 138.968964,80.366737 
	C139.161331,81.113335 139.353699,81.859932 139.027664,82.713882 
	C138.327820,82.789032 138.146362,82.756821 137.964905,82.724609 
z"/>
<path fill="#F9F9F8" opacity="1.000000" stroke="none" 
	d="
M69.038757,139.757568 
	C69.037224,140.451828 68.883980,140.722794 68.362289,140.990768 
	C68.176712,140.071747 68.219849,139.076675 68.622528,138.033783 
	C68.982071,137.985977 69.054352,138.035461 69.054352,138.035461 
	C69.045158,138.494736 69.035973,138.954010 69.038757,139.757568 
z"/>
<path fill="#F9F9F8" opacity="1.000000" stroke="none" 
	d="
M70.969223,124.462807 
	C71.124954,124.243210 71.292358,124.358879 72.028152,124.468475 
	C72.746925,124.358582 72.897316,124.254753 73.047707,124.150932 
	C72.727516,124.952538 72.407326,125.754143 72.087143,126.555748 
	C71.718391,125.969856 71.349648,125.383972 70.969223,124.462807 
z"/>
<path fill="#F9F9F8" opacity="1.000000" stroke="none" 
	d="
M68.946060,137.961060 
	C68.927475,137.207932 68.944901,136.479706 68.962334,135.751480 
	C69.236069,135.793259 69.750183,135.853882 69.748604,135.874069 
	C69.700905,136.482574 69.602325,137.087112 69.283035,137.863861 
	C69.054352,138.035461 68.982071,137.985977 68.946060,137.961060 
z"/>
<path fill="#4D4B4B" opacity="1.000000" stroke="none" 
	d="
M50.953941,127.645607 
	C50.591549,127.963127 50.176815,127.976105 49.450974,128.002289 
	C49.096447,127.549118 49.053024,127.082771 49.078468,126.268906 
	C49.732086,126.394615 50.316845,126.867844 50.953941,127.645607 
z"/>
<path fill="#F9F9F8" opacity="1.000000" stroke="none" 
	d="
M98.904007,145.839386 
	C98.352074,145.975235 97.805687,145.798767 97.107132,145.369568 
	C97.606499,145.253571 98.258034,145.390320 98.904007,145.839386 
z"/>
<path fill="#F9F9F8" opacity="1.000000" stroke="none" 
	d="
M148.941605,130.065948 
	C148.270340,129.642731 147.659210,129.157074 147.022156,128.333435 
	C146.996262,127.995453 147.050049,127.932785 147.050049,127.932785 
	C147.688705,128.379654 148.327362,128.826508 149.046112,129.578125 
	C149.126190,129.882874 149.001724,130.003510 148.941605,130.065948 
z"/>
<path fill="#F9F9F8" opacity="1.000000" stroke="none" 
	d="
M143.889008,126.706757 
	C143.595520,126.789841 143.207443,126.699219 143.121063,126.486237 
	C143.052109,126.316223 143.350647,125.997147 143.486053,125.744240 
	C143.632248,125.989571 143.778442,126.234901 143.889008,126.706757 
z"/>
<path fill="#F9F9F8" opacity="1.000000" stroke="none" 
	d="
M79.604980,132.286713 
	C79.438278,132.155762 79.413368,131.928589 79.388451,131.701416 
	C79.507896,131.864441 79.627342,132.027481 79.604980,132.286713 
z"/>
<path fill="#F9F9F8" opacity="1.000000" stroke="none" 
	d="
M127.199188,136.950043 
	C127.379074,136.661377 127.869965,136.366699 128.671936,136.028488 
	C128.492065,136.304657 128.001129,136.624344 127.199188,136.950043 
z"/>
<path fill="#F9F9F8" opacity="1.000000" stroke="none" 
	d="
M123.208908,139.948761 
	C123.384323,139.658340 123.874702,139.359573 124.672577,138.992905 
	C124.494667,139.263474 124.009270,139.601959 123.208908,139.948761 
z"/>
<path fill="#F9F9F8" opacity="1.000000" stroke="none" 
	d="
M135.203720,127.830994 
	C135.113983,127.410881 135.281403,126.838943 135.723022,126.143570 
	C135.818436,126.573158 135.639648,127.126167 135.203720,127.830994 
z"/>
<path fill="#987D3E" opacity="1.000000" stroke="none" 
	d="
M137.747299,82.892410 
	C138.146362,82.756821 138.327820,82.789032 138.771881,82.907547 
	C138.628021,83.390945 138.221542,83.788040 137.530914,84.255890 
	C137.246780,84.326637 137.104767,84.133324 137.028976,84.040146 
	C137.145355,83.651382 137.337524,83.355797 137.747299,82.892410 
z"/>
<path fill="#F9F9F8" opacity="1.000000" stroke="none" 
	d="
M133.223572,130.833466 
	C133.143250,130.432068 133.317581,129.873749 133.741516,129.160385 
	C133.820160,129.562393 133.649185,130.119476 133.223572,130.833466 
z"/>
<path fill="#F9F9F8" opacity="1.000000" stroke="none" 
	d="
M100.673416,146.425934 
	C100.322357,146.589508 99.770660,146.575684 99.052933,146.331665 
	C99.415527,146.150482 99.944160,146.199493 100.673416,146.425934 
z"/>
<path fill="#F9F9F8" opacity="1.000000" stroke="none" 
	d="
M134.222214,128.879303 
	C134.158661,128.692947 134.316544,128.396240 134.727234,128.027344 
	C134.896759,128.289368 134.717957,128.560638 134.222214,128.879303 
z"/>
<path fill="#F9F9F8" opacity="1.000000" stroke="none" 
	d="
M83.027412,130.050079 
	C82.917839,130.091995 82.773460,130.092361 82.769264,130.015869 
	C82.909454,129.939026 82.992599,130.008545 83.027412,130.050079 
z"/>
<path fill="#F9F9F8" opacity="1.000000" stroke="none" 
	d="
M146.965134,128.022583 
	C146.822647,127.878723 146.711288,127.707710 146.599945,127.536697 
	C146.700500,127.578041 146.801041,127.619385 146.975830,127.796753 
	C147.050049,127.932785 146.996262,127.995453 146.965134,128.022583 
z"/>
<path fill="#F9F9F8" opacity="1.000000" stroke="none" 
	d="
M81.889145,147.632858 
	C81.974266,147.765533 81.498291,147.845001 81.268951,147.770111 
	C81.244377,147.364975 81.499176,147.299957 81.889145,147.632858 
z"/>
<path fill="#4D4B4B" opacity="1.000000" stroke="none" 
	d="
M73.000488,123.856606 
	C72.897316,124.254753 72.746925,124.358582 72.327682,124.409874 
	C72.147491,124.028992 72.236153,123.700645 72.515007,123.196228 
	C72.787895,123.200859 72.870583,123.381569 73.000488,123.856606 
z"/>
<path fill="#675A13" opacity="1.000000" stroke="none" 
	d="
M88.621605,178.227936 
	C85.493324,177.732819 82.814888,177.271515 79.397858,176.682983 
	C80.362373,174.717300 80.978577,173.461456 82.235046,171.803192 
	C84.576256,171.009766 86.279678,170.629135 87.977638,170.225525 
	C91.192657,169.461319 94.404541,168.683899 97.617737,167.911957 
	C102.402893,167.620712 107.188042,167.329453 112.524986,167.309296 
	C114.082054,169.045731 115.087326,170.511032 116.223984,172.167847 
	C115.600929,173.192719 114.788040,174.529816 113.975159,175.866913 
	C105.673920,176.665192 97.372681,177.463455 88.621605,178.227936 
z"/>
<path fill="#B89C34" opacity="1.000000" stroke="none" 
	d="
M154.804626,166.711945 
	C154.267685,169.446793 153.680069,171.862793 152.712158,174.639984 
	C151.884247,174.985535 151.436600,174.969879 150.692627,174.672256 
	C147.449020,174.288925 144.501755,174.187546 141.554504,174.086166 
	C140.909576,174.052155 140.264648,174.018143 139.543396,173.674042 
	C141.263245,172.213745 143.059433,171.063507 144.855606,169.913284 
	C144.613815,169.466934 144.372025,169.020599 144.130234,168.574249 
	C142.923706,168.574249 141.717178,168.574249 140.536682,168.574249 
	C140.340988,167.378708 140.162384,166.287537 140.384293,165.130905 
	C144.561798,164.761261 148.338791,164.457062 152.115768,164.152863 
	C152.995163,164.899612 153.874557,165.646362 154.804626,166.711945 
z"/>
<path fill="#8E7926" opacity="1.000000" stroke="none" 
	d="
M114.400986,175.930038 
	C114.788040,174.529816 115.600929,173.192719 116.223984,172.167847 
	C115.087326,170.511032 114.082054,169.045731 112.947021,167.330231 
	C114.991257,166.727829 117.165245,166.375610 119.929512,166.034958 
	C120.812302,166.126801 121.016792,166.306961 121.222549,166.889374 
	C122.025223,168.511246 122.738586,169.830765 123.549881,171.331451 
	C124.054413,170.988937 125.200478,170.210892 127.085167,168.931427 
	C126.152122,171.561142 125.568176,173.206940 124.984238,174.852737 
	C121.598427,175.232880 118.212631,175.613022 114.400986,175.930038 
z"/>
<path fill="#F6F1E7" opacity="1.000000" stroke="none" 
	d="
M121.133247,166.587006 
	C121.016792,166.306961 120.812302,166.126801 120.315063,165.996124 
	C130.386246,163.601837 140.713455,162.042801 151.690155,164.031219 
	C148.338791,164.457062 144.561798,164.761261 139.959473,165.096375 
	C133.133835,165.613861 127.133545,166.100433 121.133247,166.587006 
z"/>
<path fill="#EBE1D9" opacity="1.000000" stroke="none" 
	d="
M97.363083,167.868530 
	C94.404541,168.683899 91.192657,169.461319 87.977638,170.225525 
	C86.279678,170.629135 84.576256,171.009766 82.557762,171.602203 
	C82.140236,170.790024 82.040253,169.776398 81.912247,168.027832 
	C78.983620,166.795929 76.083008,166.298965 73.182396,165.802002 
	C73.182396,165.802002 73.297310,165.795563 73.340149,165.755875 
	C77.621902,161.966736 81.892731,163.018539 84.346024,168.869186 
	C88.474449,168.531433 92.791435,168.178268 97.363083,167.868530 
z"/>
<path fill="#46A744" opacity="1.000000" stroke="none" 
	d="
M110.173286,155.307068 
	C112.150803,156.183273 113.766449,156.853119 116.676369,158.059586 
	C110.664665,158.059586 105.831291,158.059586 100.915009,158.059586 
	C100.615601,154.863785 101.521965,154.507034 110.173286,155.307068 
z"/>
<path fill="#4CA042" opacity="1.000000" stroke="none" 
	d="
M145.089798,154.383484 
	C140.432388,154.736099 135.814056,154.736099 130.729477,154.736099 
	C134.226028,149.953888 137.153473,149.946045 145.089798,154.383484 
z"/>
<path fill="#49A443" opacity="1.000000" stroke="none" 
	d="
M138.610504,159.129150 
	C136.189850,159.108047 134.164536,159.108047 132.023148,159.108047 
	C134.451675,155.711899 134.451675,155.711899 145.022797,159.150238 
	C143.017151,159.150238 141.011505,159.150238 138.610504,159.129150 
z"/>
<path fill="#4F9D41" opacity="1.000000" stroke="none" 
	d="
M102.362442,152.927277 
	C101.323936,152.570328 100.730125,152.179916 100.136322,151.789520 
	C100.818687,151.222595 101.528137,150.140671 102.178894,150.174866 
	C105.620560,150.355865 109.047478,150.817780 112.479507,151.182281 
	C112.434959,151.752792 112.390404,152.323303 112.345856,152.893814 
	C109.166283,152.893814 105.986702,152.893814 102.362442,152.927277 
z"/>
<path fill="#54973E" opacity="1.000000" stroke="none" 
	d="
M118.509506,154.879120 
	C117.193733,153.861221 116.280510,152.857300 114.823425,151.255493 
	C119.064384,151.652313 122.086182,151.935059 125.713837,152.274490 
	C124.389053,156.519257 121.068779,154.286392 118.509506,154.879120 
z"/>
<path fill="#47A644" opacity="1.000000" stroke="none" 
	d="
M81.346840,157.945587 
	C80.031151,157.893127 79.157547,157.844910 77.918976,157.776550 
	C81.330338,154.378952 81.330338,154.378952 91.438622,157.949829 
	C87.371857,157.949829 84.580391,157.949829 81.346840,157.945587 
z"/>
<path fill="#33BA4C" opacity="1.000000" stroke="none" 
	d="
M162.590729,155.983795 
	C162.944443,156.059555 162.929672,156.545212 162.964172,156.785950 
	C162.225159,157.358704 161.451630,157.690735 160.349396,157.786194 
	C160.053497,157.152252 160.086304,156.754883 160.119110,156.357498 
	C160.825073,156.207672 161.531052,156.057846 162.590729,155.983795 
z"/>
<path fill="#54983F" opacity="1.000000" stroke="none" 
	d="
M159.796173,156.295563 
	C160.086304,156.754883 160.053497,157.152252 160.012482,157.850555 
	C159.421829,158.172394 158.839417,158.193283 158.256989,158.214188 
	C158.662399,157.554001 159.067810,156.893814 159.796173,156.295563 
z"/>
<path fill="#9C852E" opacity="1.000000" stroke="none" 
	d="
M121.222549,166.889374 
	C127.133545,166.100433 133.133835,165.613861 139.558960,165.161804 
	C140.162384,166.287537 140.340988,167.378708 140.536682,168.574249 
	C141.717178,168.574249 142.923706,168.574249 144.130234,168.574249 
	C144.372025,169.020599 144.613815,169.466934 144.855606,169.913284 
	C143.059433,171.063507 141.263245,172.213745 139.227997,173.602905 
	C134.613174,174.214172 130.237427,174.586517 125.422951,174.905792 
	C125.568176,173.206940 126.152122,171.561142 127.085167,168.931427 
	C125.200478,170.210892 124.054413,170.988937 123.549881,171.331451 
	C122.738586,169.830765 122.025223,168.511246 121.222549,166.889374 
z"/>
<path fill="#6C5E15" opacity="1.000000" stroke="none" 
	d="
M150.988968,174.954208 
	C151.436600,174.969879 151.884247,174.985535 152.666962,175.028259 
	C153.427719,175.727081 153.853378,176.398849 154.282867,177.075424 
	C153.292297,178.164703 152.297928,179.249146 151.155258,180.613953 
	C147.704819,180.639114 142.945282,184.698669 142.356598,177.409622 
	C144.784241,177.120819 146.772583,177.490311 148.676392,177.233368 
	C149.534164,177.117599 150.223312,175.752472 150.988968,174.954208 
z"/>
<path fill="#967F24" opacity="1.000000" stroke="none" 
	d="
M150.692627,174.672256 
	C150.223312,175.752472 149.534164,177.117599 148.676392,177.233368 
	C146.772583,177.490311 144.784241,177.120819 142.399612,177.016388 
	C141.862122,176.292496 141.755386,175.558990 141.601562,174.455811 
	C144.501755,174.187546 147.449020,174.288925 150.692627,174.672256 
z"/>
<path fill="#7D6C20" opacity="1.000000" stroke="none" 
	d="
M73.115303,166.191315 
	C76.083008,166.298965 78.983620,166.795929 81.857834,167.649551 
	C79.039581,169.158478 76.247726,170.310760 72.794365,171.736053 
	C72.910065,169.386246 72.979141,167.983444 73.115303,166.191315 
z"/>
<path fill="#967C00" opacity="1.000000" stroke="none" 
	d="
M170.963562,174.855133 
	C170.459976,175.192505 169.602264,175.569412 168.419037,175.893692 
	C168.932129,175.525604 169.770782,175.210144 170.963562,174.855133 
z"/>
<path fill="#F5F3EE" opacity="1.000000" stroke="none" 
	d="
M121.142502,80.631927 
	C124.619675,78.091599 126.859619,79.633919 127.935127,81.813751 
	C127.050438,85.837280 126.352104,89.013290 125.676888,92.502304 
	C122.756920,91.514000 119.813835,90.212685 116.516205,88.818604 
	C116.161652,88.725845 116.213806,88.641724 116.191040,88.607430 
	C116.631859,87.604790 116.982216,86.558487 117.583572,85.684990 
	C118.697250,84.067329 119.957741,82.550758 121.142502,80.631927 
z"/>
<path fill="#F6F4EF" opacity="1.000000" stroke="none" 
	d="
M106.636536,91.999878 
	C104.663651,90.811836 102.566826,89.827782 104.435150,86.929642 
	C104.816772,86.337685 103.036148,84.351830 102.100990,82.749313 
	C106.008286,77.785675 105.877083,77.882454 109.831161,83.243187 
	C111.093071,84.954018 113.253456,86.002121 114.839500,87.689697 
	C114.405815,87.992813 114.173569,88.072029 113.890167,88.434067 
	C111.512497,89.689575 109.224197,90.774612 106.636536,91.999878 
z"/>
<path fill="#155CAC" opacity="1.000000" stroke="none" 
	d="
M126.966133,123.062088 
	C127.001404,123.235184 127.036682,123.408279 126.667137,123.949120 
	C123.275650,124.406662 120.289391,124.516953 117.302124,124.576637 
	C116.025696,124.602142 114.747231,124.498917 113.469559,124.494606 
	C110.293152,124.483879 107.116661,124.496391 103.940208,124.499573 
	C103.643196,124.158272 103.346184,123.816971 103.343933,123.049591 
	C103.479027,121.742149 103.319351,120.860794 103.159676,119.979431 
	C103.122612,119.768036 103.085548,119.556641 103.543350,119.128517 
	C106.121185,119.279495 108.514664,120.486740 110.227333,119.853279 
	C114.870651,118.135880 118.674149,118.461197 122.012260,122.577133 
	C123.692955,122.927399 125.329544,122.994743 126.966133,123.062088 
M114.166328,122.874542 
	C115.231674,122.874542 116.297020,122.874542 118.151505,122.874542 
	C116.140625,120.069412 114.916191,118.312134 114.166328,122.874542 
M106.062103,122.520111 
	C106.213333,122.781357 106.364563,123.042603 106.515793,123.303848 
	C106.656250,123.034821 106.959145,122.712395 106.893028,122.511284 
	C106.822159,122.295753 106.404037,122.194382 106.062103,122.520111 
M111.530373,121.706566 
	C111.397751,122.123520 111.242348,122.535599 111.151329,122.961449 
	C111.132690,123.048653 111.355247,123.187408 111.466629,123.302406 
	C111.599136,122.885368 111.731636,122.468330 111.530373,121.706566 
z"/>
<path fill="#2969B1" opacity="1.000000" stroke="none" 
	d="
M125.947067,126.602127 
	C123.692749,132.210205 118.435196,131.457642 114.186989,131.333115 
	C111.044273,131.240982 106.586960,132.495087 104.948082,127.512764 
	C107.788452,126.980141 110.477142,126.771385 113.169556,126.637329 
	C114.594063,126.566414 116.025055,126.628250 117.453102,126.625259 
	C120.284424,126.619347 123.115746,126.610039 125.947067,126.602127 
z"/>
<path fill="#E3EBF1" opacity="1.000000" stroke="none" 
	d="
M121.968155,122.294205 
	C118.674149,118.461197 114.870651,118.135880 110.227333,119.853279 
	C108.514664,120.486740 106.121185,119.279495 103.650436,118.824921 
	C103.338135,118.212296 103.413605,117.686554 104.106430,117.099182 
	C107.403702,117.090080 110.083450,117.168304 112.763596,117.185448 
	C114.368690,117.195717 115.974831,117.122505 117.579742,117.065521 
	C120.554504,116.959892 123.528709,116.838661 126.503151,116.723938 
	C126.716927,117.560471 126.930702,118.396996 126.757935,119.755096 
	C124.903641,120.949173 123.435898,121.621689 121.968155,122.294205 
z"/>
<path fill="#DCE5EB" opacity="1.000000" stroke="none" 
	d="
M126.139511,126.398903 
	C123.115746,126.610039 120.284424,126.619347 117.453102,126.625259 
	C116.025055,126.628250 114.594063,126.566414 113.169556,126.637329 
	C110.477142,126.771385 107.788452,126.980141 104.714203,127.138184 
	C104.100990,126.416748 103.871773,125.714981 103.791382,124.756393 
	C107.116661,124.496391 110.293152,124.483879 113.469559,124.494606 
	C114.747231,124.498917 116.025696,124.602142 117.302124,124.576637 
	C120.289391,124.516953 123.275650,124.406662 126.603813,124.206421 
	C126.740860,124.795883 126.536407,125.495773 126.139511,126.398903 
z"/>
<path fill="#175CAA" opacity="1.000000" stroke="none" 
	d="
M126.420532,116.472336 
	C123.528709,116.838661 120.554504,116.959892 117.579742,117.065521 
	C115.974831,117.122505 114.368690,117.195717 112.763596,117.185448 
	C110.083450,117.168304 107.403702,117.090080 104.322411,116.930061 
	C104.050636,116.326782 104.180237,115.831001 104.910011,115.338242 
	C107.449211,115.495094 109.387123,115.755424 111.327553,115.775696 
	C113.723427,115.800713 116.124802,115.678757 118.517456,115.522865 
	C120.857506,115.370407 123.189583,115.095375 125.525146,114.874146 
	C125.796074,115.323013 126.066994,115.771881 126.420532,116.472336 
z"/>
<path fill="#D4E0EB" opacity="1.000000" stroke="none" 
	d="
M125.407196,114.606415 
	C123.189583,115.095375 120.857506,115.370407 118.517456,115.522865 
	C116.124802,115.678757 113.723427,115.800713 111.327553,115.775696 
	C109.387123,115.755424 107.449211,115.495094 105.122566,115.186661 
	C104.786156,114.842033 104.837349,114.652000 105.443939,114.211975 
	C111.571846,114.004555 117.144379,114.067688 122.716820,114.060455 
	C123.328331,114.059662 123.939316,113.654816 124.550545,113.437378 
	C124.796776,113.737808 125.043007,114.038239 125.407196,114.606415 
z"/>
<path fill="#1E61AC" opacity="1.000000" stroke="none" 
	d="
M124.373314,113.213898 
	C123.939316,113.654816 123.328331,114.059662 122.716820,114.060455 
	C117.144379,114.067688 111.571846,114.004555 105.563507,113.942062 
	C105.699654,113.339012 106.271637,112.755875 107.503639,112.154465 
	C113.083511,112.062401 118.003365,111.988609 122.923218,111.914810 
	C123.347504,112.273354 123.771797,112.631889 124.373314,113.213898 
z"/>
<path fill="#F3F4EC" opacity="1.000000" stroke="none" 
	d="
M122.747856,111.602150 
	C118.003365,111.988609 113.083511,112.062401 107.784309,111.986771 
	C112.313828,107.585655 117.395065,108.105934 122.747856,111.602150 
z"/>
<path fill="#2C6BB3" opacity="1.000000" stroke="none" 
	d="
M122.012260,122.577133 
	C123.435898,121.621689 124.903641,120.949173 126.676842,120.073578 
	C127.019630,120.669640 127.056961,121.468788 127.030212,122.665009 
	C125.329544,122.994743 123.692955,122.927399 122.012260,122.577133 
z"/>
<path fill="#2C6BB3" opacity="1.000000" stroke="none" 
	d="
M103.099716,120.358795 
	C103.319351,120.860794 103.479027,121.742149 103.416084,122.826042 
	C103.142235,122.265099 103.090996,121.501625 103.099716,120.358795 
z"/>
<path fill="#A0301B" opacity="1.000000" stroke="none" 
	d="
M69.024551,118.723701 
	C68.897720,118.414116 69.081505,118.122627 69.555588,117.754120 
	C69.675644,118.031998 69.505402,118.386902 69.024551,118.723701 
z"/>
<path fill="#FCFCFB" opacity="1.000000" stroke="none" 
	d="
M103.241577,73.249718 
	C103.044014,73.575684 102.660835,73.710823 102.277657,73.845963 
	C102.255943,73.577148 102.234222,73.308334 102.445770,72.861191 
	C102.804680,72.808197 102.930321,72.933540 103.241577,73.249718 
z"/>
<path fill="#FCFCFB" opacity="1.000000" stroke="none" 
	d="
M177.569016,108.174561 
	C178.974823,109.919876 179.769745,111.760094 180.970856,113.279106 
	C183.100677,115.972679 184.350830,118.663567 181.825607,122.303497 
	C174.511841,122.377586 168.600113,119.572067 162.720505,116.667030 
	C156.000229,115.008728 153.816635,110.117943 153.523224,103.415939 
	C157.113190,103.573647 160.799057,103.984962 164.393356,104.800018 
	C166.543137,105.287521 168.549576,106.407143 170.822662,107.857246 
	C171.156143,108.755768 171.287399,109.039673 171.418640,109.323570 
	C171.613358,108.920258 171.808090,108.516945 172.002808,108.113632 
	C173.715576,108.117348 175.428329,108.121063 177.569016,108.174561 
z"/>
<path fill="#F8F8F7" opacity="1.000000" stroke="none" 
	d="
M171.753433,108.070053 
	C171.808090,108.516945 171.613358,108.920258 171.418640,109.323570 
	C171.287399,109.039673 171.156143,108.755768 171.012878,108.221123 
	C171.168594,107.989075 171.336319,108.007767 171.753433,108.070053 
z"/>
<path fill="#444445" opacity="1.000000" stroke="none" 
	d="
M151.975677,100.016258 
	C151.821518,99.866173 151.709885,99.675858 151.598236,99.485542 
	C151.716522,99.520302 151.834793,99.555069 152.024994,99.739555 
	C152.096893,99.889282 152.018219,99.976028 151.975677,100.016258 
z"/>
<path fill="#A0301B" opacity="1.000000" stroke="none" 
	d="
M162.606171,116.977722 
	C168.600113,119.572067 174.511841,122.377586 181.624298,122.548080 
	C182.372452,123.023453 182.739334,123.594109 183.146942,124.520157 
	C182.424576,125.871346 181.349075,127.846107 180.944946,127.717140 
	C174.092682,125.530373 166.341675,124.791862 162.606171,116.977722 
z"/>
<path fill="#2C6BB3" opacity="1.000000" stroke="none" 
	d="
M113.907135,122.664001 
	C114.916191,118.312134 116.140625,120.069412 118.151505,122.874542 
	C116.297020,122.874542 115.231674,122.874542 113.907135,122.664001 
z"/>
<path fill="#2C6BB3" opacity="1.000000" stroke="none" 
	d="
M106.099785,122.281647 
	C106.404037,122.194382 106.822159,122.295753 106.893028,122.511284 
	C106.959145,122.712395 106.656250,123.034821 106.515793,123.303848 
	C106.364563,123.042603 106.213333,122.781357 106.099785,122.281647 
z"/>
<path fill="#2C6BB3" opacity="1.000000" stroke="none" 
	d="
M111.697258,121.878929 
	C111.731636,122.468330 111.599136,122.885368 111.466629,123.302406 
	C111.355247,123.187408 111.132690,123.048653 111.151329,122.961449 
	C111.242348,122.535599 111.397751,122.123520 111.697258,121.878929 
z"/>
</svg>