<svg width="108" height="24" viewBox="0 0 108 24" fill="none" xmlns="http://www.w3.org/2000/svg">
<path d="M44.836 4.59999V18.4H42.436V7.58299H42.4L38.119 18.4H36.531L32.142 7.58299H32.113V18.4H29.9V4.59999H33.336L37.3 14.83H37.358L41.545 4.59999H44.836ZM46.836 5.64899C46.8324 5.46719 46.868 5.28674 46.9403 5.1199C47.0126 4.95305 47.1199 4.8037 47.255 4.68199C47.5241 4.42552 47.8833 4.28539 48.255 4.29199C48.4432 4.2862 48.6307 4.31866 48.806 4.38742C48.9813 4.45617 49.1409 4.55978 49.275 4.69199C49.4039 4.81563 49.506 4.9645 49.5748 5.12933C49.6436 5.29415 49.6777 5.47139 49.675 5.64999C49.6785 5.82925 49.6433 6.00717 49.5719 6.17162C49.5004 6.33607 49.3944 6.4832 49.261 6.60299C48.9878 6.8587 48.6251 6.99695 48.251 6.98799C48.0668 6.99236 47.8836 6.96033 47.7118 6.89375C47.5401 6.82717 47.3831 6.72734 47.25 6.59999C47.1188 6.47978 47.0145 6.33316 46.944 6.16977C46.8735 6.00638 46.8384 5.82992 46.841 5.65199M49.41 18.4H47.081V8.50699H49.41V18.4ZM56.474 16.706C56.8672 16.6964 57.2553 16.6147 57.619 16.465C58.0313 16.3073 58.4199 16.0936 58.774 15.83V18C58.3776 18.2211 57.9511 18.3831 57.508 18.481C56.9979 18.5944 56.4765 18.6495 55.954 18.645C55.3011 18.6749 54.649 18.5685 54.0395 18.3326C53.4299 18.0967 52.8762 17.7364 52.4135 17.2747C51.9509 16.813 51.5895 16.2599 51.3523 15.6509C51.1151 15.0418 51.0074 14.39 51.036 13.737C50.9828 12.2955 51.4838 10.8885 52.436 9.80499C52.9437 9.27604 53.5605 8.86388 54.2434 8.5971C54.9264 8.33031 55.6592 8.21528 56.391 8.25999C56.8376 8.26117 57.2823 8.3176 57.715 8.42799C58.0845 8.512 58.4418 8.64306 58.778 8.81799V11.051C58.44 10.7996 58.0701 10.5941 57.678 10.44C57.3114 10.2972 56.9214 10.2236 56.528 10.223C56.1149 10.207 55.703 10.279 55.3198 10.4341C54.9366 10.5893 54.5907 10.8241 54.305 11.123C53.7158 11.7855 53.4115 12.6536 53.458 13.539C53.4324 13.9631 53.491 14.388 53.6305 14.7893C53.7701 15.1906 53.9878 15.5603 54.271 15.877C54.5612 16.1619 54.9073 16.3834 55.2876 16.5275C55.6679 16.6715 56.0739 16.7351 56.48 16.714M65.4 8.34299C65.5675 8.34178 65.7347 8.35483 65.9 8.38199C66.0278 8.40368 66.1533 8.43715 66.275 8.48199V10.84C66.1103 10.7295 65.9304 10.6436 65.741 10.585C65.4654 10.4988 65.1776 10.4582 64.889 10.465C64.6081 10.4646 64.3311 10.5296 64.0797 10.655C63.8284 10.7803 63.6097 10.9624 63.441 11.187C62.9964 11.839 62.7876 12.6232 62.849 13.41V18.4H60.525V8.50699H62.854V10.066H62.892C63.0802 9.55773 63.4154 9.117 63.855 8.79999C64.3089 8.4886 64.8497 8.32864 65.4 8.34299ZM66.4 13.597C66.3634 12.8892 66.4676 12.1812 66.7066 11.514C66.9455 10.8468 67.3144 10.2336 67.792 9.70999C68.2992 9.21707 68.9034 8.83503 69.5662 8.58816C70.229 8.34129 70.9359 8.23498 71.642 8.27599C72.3091 8.23793 72.9767 8.34128 73.6011 8.57928C74.2255 8.81727 74.7925 9.18453 75.265 9.65699C76.1707 10.6813 76.6376 12.0206 76.565 13.386C76.6004 14.0845 76.496 14.783 76.258 15.4407C76.02 16.0983 75.6532 16.7019 75.179 17.216C74.6829 17.7012 74.0915 18.0783 73.4423 18.3234C72.793 18.5685 72.1 18.6763 71.407 18.64C70.7384 18.6741 70.0698 18.5719 69.442 18.3394C68.8142 18.107 68.2402 17.7493 67.755 17.288C67.2922 16.7966 66.9341 16.2163 66.7022 15.5824C66.4703 14.9484 66.3695 14.274 66.406 13.6M68.831 13.523C68.7721 14.3708 69.0206 15.2115 69.531 15.891C69.7834 16.1695 70.0952 16.3876 70.4433 16.5292C70.7914 16.6708 71.1669 16.7322 71.542 16.709C71.9058 16.7323 72.27 16.6706 72.6057 16.5286C72.9414 16.3866 73.2394 16.1683 73.476 15.891C73.9673 15.182 74.2016 14.3264 74.14 13.466C74.2024 12.6063 73.9587 11.7522 73.452 11.055C73.2133 10.7819 72.9155 10.5668 72.5813 10.426C72.2471 10.2851 71.8852 10.2222 71.523 10.242C71.1484 10.2216 70.7742 10.2879 70.4294 10.4357C70.0846 10.5834 69.7786 10.8087 69.535 11.094C69.0216 11.796 68.7713 12.6561 68.828 13.524M80.028 11.108C80.0203 11.2541 80.0448 11.4002 80.0998 11.5358C80.1547 11.6715 80.2388 11.7934 80.346 11.893C80.7754 12.1987 81.247 12.4403 81.746 12.61C82.4927 12.8604 83.1658 13.2919 83.705 13.866C84.0856 14.3452 84.2849 14.9433 84.268 15.555C84.2807 15.9862 84.1904 16.4142 84.0047 16.8036C83.8189 17.193 83.5431 17.5325 83.2 17.794C82.3577 18.3978 81.3348 18.6965 80.3 18.641C79.8422 18.6361 79.386 18.5862 78.938 18.492C78.5037 18.4119 78.0795 18.2845 77.673 18.112V15.822C78.0952 16.1156 78.555 16.351 79.04 16.522C79.4647 16.6834 79.9138 16.7714 80.368 16.782C80.7685 16.8083 81.169 16.7322 81.532 16.561C81.6571 16.4845 81.7585 16.3746 81.8247 16.2437C81.8909 16.1129 81.9194 15.9661 81.907 15.82C81.908 15.6638 81.8734 15.5094 81.8058 15.3685C81.7382 15.2276 81.6395 15.104 81.517 15.007C81.0642 14.682 80.5667 14.4243 80.04 14.242C79.3407 13.9924 78.7129 13.5761 78.211 13.029C77.8378 12.5379 77.6472 11.9323 77.672 11.316C77.6642 10.8916 77.7564 10.4714 77.941 10.0892C78.1257 9.70701 78.3977 9.37363 78.735 9.11599C79.5273 8.51396 80.506 8.20956 81.5 8.25599C81.8906 8.26013 82.2801 8.29861 82.664 8.37099C83.0331 8.43162 83.3946 8.53221 83.742 8.67099V10.885C83.4053 10.6658 83.0434 10.4881 82.664 10.356C82.2725 10.2121 81.8591 10.1373 81.442 10.135C81.0789 10.114 80.718 10.2048 80.408 10.395C80.2906 10.4722 80.1948 10.5781 80.1299 10.7027C80.065 10.8274 80.033 10.9665 80.037 11.107M85.278 13.6C85.2402 12.8921 85.3433 12.1838 85.5812 11.5161C85.8191 10.8484 86.1871 10.2345 86.664 9.70999C87.1711 9.21719 87.7751 8.83524 88.4377 8.58837C89.1004 8.3415 89.8071 8.23513 90.513 8.27599C91.1803 8.23785 91.8481 8.34116 92.4726 8.57916C93.0971 8.81715 93.6643 9.18446 94.137 9.65699C95.0427 10.6813 95.5096 12.0206 95.437 13.386C95.4722 14.0845 95.3678 14.783 95.1298 15.4406C94.8919 16.0983 94.5251 16.7018 94.051 17.216C93.5547 17.7013 92.9632 18.0784 92.3138 18.3235C91.6644 18.5686 90.9712 18.6764 90.278 18.64C89.6094 18.6742 88.9408 18.572 88.313 18.3395C87.6851 18.1071 87.1112 17.7493 86.626 17.288C86.1634 16.7965 85.8054 16.2162 85.5737 15.5822C85.342 14.9483 85.2414 14.2739 85.278 13.6ZM87.703 13.523C87.6443 14.3708 87.8928 15.2114 88.403 15.891C88.6554 16.1694 88.9672 16.3875 89.3153 16.5291C89.6634 16.6707 90.0389 16.7322 90.414 16.709C90.7778 16.7323 91.142 16.6706 91.4777 16.5286C91.8134 16.3866 92.1114 16.1683 92.348 15.891C92.8393 15.182 93.0736 14.3264 93.012 13.466C93.0745 12.6063 92.8307 11.7522 92.324 11.055C92.0851 10.7819 91.7872 10.5667 91.4528 10.4258C91.1184 10.285 90.7563 10.2221 90.394 10.242C90.0196 10.2217 89.6455 10.288 89.3009 10.4358C88.9563 10.5836 88.6504 10.8088 88.407 11.094C87.8936 11.796 87.6433 12.6561 87.7 13.524M103.164 10.415H99.7V18.4H97.341V10.412H95.686V8.50699H97.341V7.12999C97.3244 6.65708 97.406 6.18587 97.5807 5.74611C97.7554 5.30634 98.0194 4.90758 98.356 4.57499C98.6999 4.24213 99.1074 3.98202 99.5542 3.8102C100.001 3.63838 100.478 3.55839 100.956 3.57499C101.207 3.57308 101.458 3.58744 101.707 3.61799C101.903 3.64216 102.096 3.68571 102.284 3.74799V5.76399C102.156 5.69751 102.022 5.64262 101.884 5.59999C101.669 5.53137 101.445 5.49761 101.22 5.49999C101.01 5.48717 100.8 5.52157 100.605 5.60066C100.41 5.67974 100.236 5.80151 100.094 5.95699C99.8036 6.34675 99.6636 6.82828 99.7 7.31299V8.50699H103.169V6.28299L105.508 5.57099V8.50699H107.866V10.413H105.508V15.042C105.464 15.4976 105.581 15.9543 105.84 16.332C105.977 16.4662 106.141 16.5692 106.321 16.6339C106.501 16.6986 106.693 16.7236 106.884 16.707C107.05 16.6998 107.214 16.6661 107.37 16.607C107.545 16.5503 107.713 16.4728 107.87 16.376V18.3C107.637 18.4113 107.389 18.4891 107.134 18.531C106.8 18.6006 106.46 18.6362 106.119 18.637C105.716 18.668 105.312 18.6143 104.931 18.4793C104.551 18.3442 104.203 18.1309 103.91 17.853C103.371 17.1886 103.108 16.3428 103.174 15.49L103.164 10.415Z" fill="#737373"/>
<path d="M10.931 0H0V10.931H10.931V0Z" fill="#F25022"/>
<path d="M23 0H12.069V10.931H23V0Z" fill="#7FBA00"/>
<path d="M10.931 12.069H0V23H10.931V12.069Z" fill="#00A4EF"/>
<path d="M23 12.069H12.069V23H23V12.069Z" fill="#FFB900"/>
</svg>
