<svg width="32" height="32" viewBox="0 0 32 32" fill="none" xmlns="http://www.w3.org/2000/svg">
<g clip-path="url(#clip0_1_55)">
<path d="M26.6667 21.7187V26.6667H21.3333V24H18.6667V21.3333H16V19.1773C14.9725 19.7191 13.8282 20.0016 12.6667 20C11.3667 20.0034 10.0897 19.6581 8.96867 19C8.42908 18.6821 7.932 18.297 7.48934 17.854C7.04354 17.4076 6.65521 16.9073 6.33334 16.3647C6.00776 15.818 5.75899 15.2292 5.594 14.6147C5.42474 13.979 5.33714 13.3244 5.33334 12.6667C5.32991 11.3667 5.67524 10.0897 6.33334 8.96867C6.65124 8.42908 7.03631 7.932 7.47934 7.48934C7.92575 7.04354 8.42607 6.65521 8.96867 6.33334C9.51532 6.00776 10.1042 5.75899 10.7187 5.594C11.3543 5.42474 12.0089 5.33714 12.6667 5.33334C13.9666 5.32991 15.2436 5.67524 16.3647 6.33334C16.9043 6.65124 17.4013 7.03631 17.844 7.47934C18.2898 7.92575 18.6781 8.42607 19 8.96867C19.3256 9.51532 19.5744 10.1042 19.7393 10.7187C19.9086 11.3543 19.9962 12.0089 20 12.6667C20 13.019 19.9722 13.3708 19.9167 13.7187C19.8616 14.0642 19.7816 14.4053 19.6773 14.7393L26.6667 21.7187ZM25.3333 22.2813L18.146 15.094C18.2959 14.7063 18.4211 14.3095 18.5207 13.906C18.6192 13.5003 18.6683 13.0842 18.6667 12.6667C18.6724 11.8652 18.5136 11.071 18.2 10.3333C17.8979 9.61973 17.459 8.97221 16.908 8.42734C16.3577 7.88467 15.7105 7.45004 15 7.146C14.2626 6.83014 13.4689 6.66707 12.6667 6.66667C11.8652 6.66094 11.071 6.81977 10.3333 7.13334C9.61973 7.43541 8.97221 7.87434 8.42734 8.42534C7.88467 8.97561 7.45004 9.62281 7.146 10.3333C6.83014 11.0707 6.66707 11.8645 6.66667 12.6667C6.66094 13.4682 6.81977 14.2624 7.13334 15C7.43541 15.7136 7.87434 16.3611 8.42534 16.906C8.97561 17.4487 9.62281 17.8833 10.3333 18.1873C11.7024 18.7752 13.2433 18.8229 14.646 18.3207C15.2855 18.0961 15.881 17.762 16.406 17.3333H17.3333V20H20V22.6667H22.6667V25.3333H25.3333V22.2813ZM10.6667 9.33334C10.8456 9.33159 11.0229 9.367 11.1873 9.43734C11.3428 9.50385 11.4842 9.59932 11.604 9.71867C11.726 9.8426 11.8249 9.98731 11.896 10.146C11.9713 10.3089 12.0069 10.4873 12 10.6667C12.0018 10.8456 11.9663 11.0229 11.896 11.1873C11.8295 11.3428 11.734 11.4842 11.6147 11.604C11.4907 11.726 11.346 11.8249 11.1873 11.896C11.0244 11.9713 10.846 12.0069 10.6667 12C10.4878 12.0018 10.3105 11.9663 10.146 11.896C9.99053 11.8295 9.84913 11.734 9.72934 11.6147C9.60734 11.4907 9.50846 11.346 9.43734 11.1873C9.36205 11.0244 9.32642 10.846 9.33334 10.6667C9.33159 10.4878 9.367 10.3105 9.43734 10.146C9.50385 9.99053 9.59932 9.84913 9.71867 9.72934C9.8426 9.60734 9.98731 9.50846 10.146 9.43734C10.3089 9.36205 10.4873 9.32642 10.6667 9.33334Z" fill="#404040"/>
</g>
<defs>
<clipPath id="clip0_1_55">
<rect width="32" height="32" fill="white"/>
</clipPath>
</defs>
</svg>
